<?xml version="1.0" standalone="no"?>
<!DOCTYPE svg PUBLIC "-//W3C//DTD SVG 20010904//EN"
 "http://www.w3.org/TR/2001/REC-SVG-20010904/DTD/svg10.dtd">
<svg version="1.0" xmlns="http://www.w3.org/2000/svg"
 width="381.000000pt" height="381.000000pt" viewBox="0 0 381.000000 381.000000"
 preserveAspectRatio="xMidYMid meet">
<metadata>
Created by potrace 1.11, written by Peter Selinger 2001-2013
</metadata>
<g transform="translate(0.000000,381.000000) scale(0.100000,-0.100000)"
fill="#000000" stroke="none">
<path d="M1869 3726 c-2 -2 -29 -7 -59 -10 -226 -26 -458 -112 -629 -233 -56
-39 -202 -179 -236 -224 -53 -73 -115 -194 -146 -289 -17 -52 -31 -74 -70
-110 -33 -29 -52 -55 -55 -75 -2 -16 -7 -37 -10 -45 -19 -52 -26 -290 -11
-380 7 -37 13 -48 40 -61 18 -9 32 -24 33 -35 6 -113 42 -289 79 -394 81 -224
221 -333 456 -354 29 -3 78 -8 107 -11 141 -14 364 -24 547 -25 l110 0 -30
-21 c-16 -11 -51 -31 -77 -44 -41 -22 -52 -24 -100 -15 -29 5 -82 12 -118 15
-36 3 -78 7 -95 9 -16 2 -57 7 -90 10 -95 11 -123 14 -250 31 -66 9 -136 18
-155 20 -19 2 -46 6 -60 9 -26 4 -85 13 -155 21 -22 3 -65 9 -95 15 -30 5 -77
11 -105 14 -27 3 -61 8 -75 10 -14 3 -43 7 -65 10 -22 3 -49 7 -61 10 -12 2
-45 7 -75 11 -30 3 -61 8 -69 10 -8 2 -39 7 -69 10 -30 4 -61 8 -70 10 -9 1
-42 6 -73 9 l-56 7 -41 -54 -40 -55 19 -93 c44 -218 110 -475 180 -704 12 -38
24 -79 27 -90 3 -11 10 -26 16 -32 5 -7 7 -13 4 -13 -6 0 44 -153 70 -212 11
-26 23 -38 37 -39 40 -3 62 -6 112 -17 45 -10 288 -55 359 -66 17 -3 73 -12
125 -21 52 -9 104 -18 115 -20 51 -7 122 -17 145 -21 14 -3 39 -7 56 -9 17 -3
74 -11 125 -19 52 -8 117 -18 144 -21 28 -4 59 -8 70 -10 11 -1 43 -6 70 -10
28 -3 78 -11 113 -16 35 -5 96 -12 135 -14 40 -3 82 -7 94 -10 14 -3 38 4 63
20 22 14 42 25 45 25 14 0 487 295 524 326 5 4 22 107 18 110 -1 1 -29 5 -62
9 -33 4 -71 8 -84 10 -35 6 -101 15 -141 19 -44 5 -111 16 -128 22 -18 5 72
82 104 89 13 3 36 8 52 11 115 24 308 24 407 0 162 -40 294 -123 446 -278 59
-59 122 -115 141 -122 36 -15 107 -21 144 -13 169 40 301 262 251 421 -26 80
-52 98 -210 145 -75 23 -181 58 -235 77 -125 46 -211 74 -227 74 -7 0 -16 12
-20 28 -23 94 -115 231 -206 308 -48 40 -44 44 9 10 58 -39 87 -42 127 -15 49
33 57 70 32 138 l-19 54 23 19 c13 10 97 75 187 145 106 82 162 132 162 144 0
10 -20 40 -45 65 -44 46 -45 47 -65 29 -11 -10 -22 -16 -25 -13 -9 9 62 66
116 93 56 29 56 28 14 122 -24 54 -72 129 -101 158 -30 30 -6 27 43 -5 26 -17
67 -57 91 -87 l42 -56 1 54 c2 66 4 88 13 123 6 25 9 26 44 20 20 -4 60 -15
87 -25 28 -11 54 -19 59 -19 15 0 -8 173 -31 230 -4 8 -7 17 -7 20 -1 3 -10
25 -20 48 l-19 41 -66 -3 c-78 -5 -141 -18 -211 -46 -57 -23 -70 -20 -70 15 0
16 -10 30 -30 42 -23 13 -30 24 -30 49 0 34 -33 206 -51 264 -61 200 -212 391
-410 522 -171 113 -332 172 -579 213 -43 7 -295 17 -301 11z m1341 -1693 c0
-10 3 -49 6 -88 l5 -70 -45 -33 -46 -32 11 27 c6 16 9 28 8 28 -2 0 6 42 16
93 12 59 23 92 32 92 7 0 13 -8 13 -17z m60 -118 c-7 -9 -15 -13 -19 -10 -3 3
1 10 9 15 21 14 24 12 10 -5z m-507 -402 c4 -3 -1 -12 -10 -18 -18 -13 -63 -1
-63 17 0 9 64 11 73 1z m-465 -139 c23 -19 42 -41 42 -48 0 -13 -67 -80 -120
-119 -40 -29 -190 -109 -190 -101 0 3 24 34 53 67 58 67 106 136 137 198 11
21 24 39 28 39 5 0 27 -16 50 -36z"/>
</g>
</svg>
